# Blender v2.77 (sub 0) OBJ File: 'misc_chair01.blend'
# www.blender.org
mtllib misc_chair01.mtl
o misc_chair01
v 0.396948 0.694813 0.522434
v 0.396948 0.547148 -0.567609
v 0.496948 0.547148 -0.567609
v 0.496948 0.694813 0.522434
v 0.396948 0.793908 0.509010
v 0.396948 0.646243 -0.581033
v 0.496948 0.646243 -0.581033
v 0.496948 0.793908 0.509010
v 0.430143 0.692938 0.343842
v 0.382590 0.692938 0.378392
v 0.400754 0.692938 0.434293
v 0.459532 0.692938 0.434293
v 0.477696 0.692938 0.378392
v 0.530143 -0.107062 -0.656158
v 0.482590 -0.102330 -0.621608
v 0.500754 -0.107062 -0.565707
v 0.559532 -0.107062 -0.565707
v 0.577696 -0.102330 -0.621608
v 0.442743 0.592938 -0.456158
v 0.395191 0.592938 -0.421608
v 0.413354 0.592938 -0.365707
v 0.472133 0.592938 -0.365707
v 0.490296 0.592938 -0.421608
v 0.577696 -0.099077 0.578392
v 0.559532 -0.107062 0.634293
v 0.482590 -0.102071 0.578392
v 0.530143 -0.107062 0.543842
v 0.500754 -0.107062 0.634293
v 0.249133 0.549634 -0.466077
v 0.249133 0.676644 0.475132
v 0.249133 0.599185 -0.472764
v 0.249133 0.726195 0.468445
v 0.416354 0.638472 -0.478065
v 0.416354 0.765482 0.463144
v 0.416354 0.588921 -0.471379
v 0.416354 0.715931 0.469830
v 0.478736 1.079639 -0.487787
v 0.421066 1.079639 -0.487787
v 0.449943 0.649581 -0.495863
v 0.411901 0.653259 -0.468469
v 0.426432 0.659211 -0.424145
v 0.473455 0.659211 -0.424145
v 0.487986 0.653259 -0.468469
v 0.449943 0.764035 -0.519948
v 0.403685 0.768507 -0.486638
v 0.421354 0.775744 -0.432741
v 0.478533 0.775744 -0.432741
v 0.496202 0.768507 -0.486638
v 0.449943 2.016680 -0.674767
v 0.416294 2.019933 -0.650537
v 0.429147 2.025198 -0.611331
v 0.470740 2.025198 -0.611331
v 0.483593 2.019933 -0.650537
v 0.421066 1.136774 -0.495626
v 0.478736 1.136774 -0.495626
v 0.478736 1.171918 0.188591
v 0.478736 1.229053 0.180752
v 0.421066 1.171918 0.188591
v 0.421066 1.229053 0.180752
v 0.437141 0.704470 -0.007472
v 0.434119 0.697945 0.031385
v 0.470658 0.700437 0.016543
v 0.437141 1.187633 0.073666
v 0.434119 1.181107 0.112524
v 0.470658 1.183600 0.097681
v 0.442261 1.022518 -0.514134
v 0.442178 1.042838 -0.480241
v 0.442210 1.003425 -0.477366
v 0.442261 1.203298 -0.544086
v 0.442178 1.227865 -0.513133
v 0.442210 1.189164 -0.505143
v 0.442261 1.401590 -0.570171
v 0.442178 1.426156 -0.539218
v 0.442210 1.387455 -0.531227
v 0.442261 1.599882 -0.596255
v 0.442178 1.624448 -0.565302
v 0.442210 1.585747 -0.557312
v 0.442261 1.798173 -0.622340
v 0.442178 1.822740 -0.591387
v 0.442210 1.784039 -0.583396
v 0.442261 1.897319 -0.635382
v 0.442178 1.921885 -0.604429
v 0.442210 1.883185 -0.596439
v 0.478533 1.941724 -0.589301
v 0.421354 1.941724 -0.589301
v 0.496202 1.934487 -0.643197
v 0.403685 1.934487 -0.643197
v 0.449943 1.930014 -0.676507
v 0.471916 0.165824 0.509055
v 0.471916 0.220053 0.509055
v 0.526145 0.220053 0.509055
v 0.526145 0.165824 0.509055
v 0.480143 0.165824 0.483969
v 0.480143 0.220053 0.483969
v 0.480143 0.220053 0.538198
v 0.480143 0.165824 0.538198
v 0.471916 0.165824 -0.526340
v 0.471916 0.220053 -0.526340
v 0.526145 0.220053 -0.526340
v 0.526145 0.165824 -0.526340
v 0.495008 0.165824 -0.547185
v 0.495008 0.220053 -0.547185
v 0.495008 0.220053 -0.492956
v 0.495008 0.165824 -0.492956
v -0.408279 0.692938 0.343842
v -0.360726 0.692938 0.378392
v -0.378890 0.692938 0.434293
v -0.437668 0.692938 0.434293
v -0.455832 0.692938 0.378392
v -0.508279 -0.107062 -0.656158
v -0.460726 -0.102330 -0.621608
v -0.478890 -0.107062 -0.565707
v -0.537668 -0.107062 -0.565707
v -0.555832 -0.102330 -0.621608
v -0.420879 0.592938 -0.456158
v -0.373326 0.592938 -0.421608
v -0.391490 0.592938 -0.365707
v -0.450268 0.592938 -0.365707
v -0.468432 0.592938 -0.421608
v -0.555832 -0.099077 0.578392
v -0.537668 -0.107062 0.634293
v -0.460726 -0.102071 0.578392
v -0.508279 -0.107062 0.543842
v -0.478890 -0.107062 0.634293
v -0.227269 0.676644 0.475132
v -0.227269 0.599185 -0.472764
v -0.227269 0.726195 0.468445
v -0.394490 0.638472 -0.478065
v -0.394490 0.765482 0.463144
v -0.394490 0.588921 -0.471379
v -0.394490 0.715931 0.469830
v -0.456872 1.079639 -0.487787
v -0.399202 1.079639 -0.487787
v -0.428079 0.649581 -0.495863
v -0.390037 0.653259 -0.468469
v -0.404568 0.659211 -0.424145
v -0.451591 0.659211 -0.424145
v -0.466121 0.653259 -0.468469
v -0.428079 0.764035 -0.519948
v -0.381820 0.768507 -0.486638
v -0.399490 0.775744 -0.432741
v -0.456669 0.775744 -0.432741
v -0.474338 0.768507 -0.486638
v -0.428079 2.016680 -0.674767
v -0.394430 2.019933 -0.650537
v -0.407283 2.025198 -0.611331
v -0.448876 2.025198 -0.611331
v -0.461729 2.019933 -0.650537
v -0.399202 1.136774 -0.495626
v -0.456872 1.136774 -0.495626
v -0.456872 1.171918 0.188591
v -0.456872 1.229053 0.180752
v -0.399202 1.171918 0.188591
v -0.399202 1.229053 0.180752
v -0.415277 0.704470 -0.007472
v -0.412255 0.697945 0.031385
v -0.448794 0.700437 0.016543
v -0.415277 1.187633 0.073666
v -0.412255 1.181107 0.112524
v -0.448794 1.183600 0.097681
v -0.420397 1.022518 -0.514134
v -0.420313 1.042838 -0.480241
v -0.420345 1.003425 -0.477366
v -0.420313 1.426156 -0.539218
v -0.420313 1.624448 -0.565302
v -0.420313 1.822740 -0.591387
v -0.420397 1.897319 -0.635382
v -0.456669 1.941724 -0.589301
v -0.399490 1.941724 -0.589301
v -0.474338 1.934487 -0.643197
v -0.381820 1.934487 -0.643197
v -0.428079 1.930014 -0.676507
v -0.450052 0.165824 0.509055
v -0.450052 0.220053 0.509055
v -0.504281 0.220053 0.509055
v -0.504281 0.165824 0.509055
v -0.458279 0.165824 0.483969
v -0.458279 0.165824 0.538198
v -0.458279 0.220053 0.538198
v -0.458279 0.220053 0.483969
v -0.450052 0.165824 -0.526340
v -0.450052 0.220053 -0.526340
v -0.504281 0.220053 -0.526340
v -0.504281 0.165824 -0.526340
v -0.473144 0.165824 -0.547185
v -0.473144 0.165824 -0.492956
v -0.473144 0.220053 -0.492956
v -0.473144 0.220053 -0.547185
v -0.227269 0.549634 -0.466077
v -0.420397 1.203298 -0.544086
v -0.420313 1.227865 -0.513133
v -0.420345 1.189164 -0.505143
v -0.420397 1.401590 -0.570171
v -0.420345 1.387455 -0.531227
v -0.420397 1.599882 -0.596255
v -0.420345 1.585747 -0.557312
v -0.420397 1.798173 -0.622340
v -0.420345 1.784039 -0.583396
v -0.420313 1.921885 -0.604429
v -0.420345 1.883185 -0.596439
v -0.375084 0.694813 0.522434
v -0.375084 0.547148 -0.567609
v -0.475084 0.547148 -0.567609
v -0.475084 0.694813 0.522434
v -0.375084 0.793908 0.509010
v -0.375084 0.646243 -0.581033
v -0.475084 0.646243 -0.581033
v -0.475084 0.793908 0.509010
vt 0.5648 0.4730
vt 0.5092 0.4730
vt 0.5092 0.4208
vt 0.5648 0.4208
vt 0.0582 0.5258
vt 0.0582 0.4730
vt 0.5092 0.5258
vt 0.0089 0.4208
vt 0.0582 0.4208
vt 0.0089 0.4730
vt 0.5092 0.5783
vt 0.0582 0.5783
vt 0.5123 0.7648
vt 0.1575 0.7648
vt 0.1575 0.7291
vt 0.5123 0.7291
vt 0.1575 0.6565
vt 0.5123 0.6565
vt 0.5123 0.6929
vt 0.1575 0.6929
vt 0.1575 0.8010
vt 0.5123 0.8010
vt 0.5123 0.8371
vt 0.1575 0.8371
vt 0.6324 0.5244
vt 0.9748 0.5244
vt 0.9748 0.5682
vt 0.6324 0.5684
vt 0.9748 0.4805
vt 0.6324 0.4805
vt 0.6324 0.4365
vt 0.9748 0.4365
vt 0.6324 0.6123
vt 0.9748 0.6123
vt 0.9748 0.6564
vt 0.6324 0.6564
vt 0.4802 0.3141
vt 0.4802 0.4023
vt 0.0144 0.4023
vt 0.0144 0.3141
vt 0.6155 0.8305
vt 0.8820 0.8305
vt 0.8820 0.8631
vt 0.6155 0.8631
vt 0.5274 0.8563
vt 0.5274 0.8891
vt 0.2003 0.8891
vt 0.2003 0.8563
vt 0.6155 0.7986
vt 0.8820 0.7986
vt 0.5274 0.9553
vt 0.5274 0.9881
vt 0.2003 0.9881
vt 0.2003 0.9553
vt 0.5421 0.7664
vt 0.6155 0.7664
vt 0.5421 0.7986
vt 0.9356 0.8305
vt 0.9356 0.8631
vt 0.5421 0.6997
vt 0.6155 0.6997
vt 0.6155 0.7331
vt 0.5421 0.7331
vt 0.5421 0.8305
vt 0.5421 0.8631
vt 0.9356 0.6997
vt 0.9661 0.6901
vt 0.9852 0.7148
vt 0.9356 0.7331
vt 0.9661 0.7477
vt 0.9356 0.7664
vt 0.8820 0.7664
vt 0.8820 0.7331
vt 0.9356 0.7986
vt 0.8820 0.6997
vt 0.5274 0.9226
vt 0.2003 0.9226
vt 0.1684 0.8891
vt 0.1684 0.8563
vt 0.5516 0.4867
vt 0.5516 0.6850
vt 0.5247 0.6850
vt 0.5247 0.4867
vt 0.5058 0.3141
vt 0.5058 0.4023
vt 0.9623 0.3141
vt 0.9623 0.4023
vt 0.9889 0.3141
vt 0.9889 0.4023
vt 0.5397 0.8739
vt 0.5397 0.9134
vt 0.9703 0.9134
vt 0.9703 0.8739
vt 0.5523 0.9524
vt 0.9576 0.9524
vt 0.9576 0.9132
vt 0.5523 0.9132
vt 0.5523 0.8739
vt 0.9576 0.8739
vt 0.5092 0.6307
vt 0.0582 0.6307
vt 0.5397 0.9919
vt 0.9703 0.9919
vt 0.9703 0.9527
vt 0.5397 0.9527
vt 0.5397 0.9524
vt 0.9703 0.9524
vt 0.9703 0.9132
vt 0.5397 0.9132
vt 0.5397 0.8739
vt 0.9703 0.8739
vt 0.1319 0.9816
vt 0.1022 0.9816
vt 0.1022 0.6624
vt 0.1319 0.6624
vt 0.0427 0.6624
vt 0.0724 0.6624
vt 0.0724 0.9816
vt 0.0427 0.9816
vt 0.0724 0.6624
vt 0.1022 0.6624
vt 0.1022 0.9816
vt 0.0724 0.9816
vt 0.0427 0.6624
vt 0.0724 0.6624
vt 0.0724 0.9816
vt 0.0427 0.9816
vt 0.0724 0.9816
vt 0.0427 0.9816
vt 0.0427 0.6624
vt 0.0724 0.6624
vt 0.0427 0.6624
vt 0.0724 0.6624
vt 0.0724 0.9816
vt 0.0427 0.9816
vt 0.5123 0.7648
vt 0.5123 0.7291
vt 0.1575 0.7291
vt 0.1575 0.7648
vt 0.1575 0.6565
vt 0.1575 0.6929
vt 0.5123 0.6929
vt 0.5123 0.6565
vt 0.1575 0.8010
vt 0.1575 0.8371
vt 0.5123 0.8371
vt 0.5123 0.8010
vt 0.6324 0.5245
vt 0.6324 0.5685
vt 0.9748 0.5685
vt 0.9748 0.5247
vt 0.9748 0.4806
vt 0.9748 0.4365
vt 0.6324 0.4365
vt 0.6324 0.4806
vt 0.6324 0.6124
vt 0.6324 0.6564
vt 0.9748 0.6564
vt 0.9748 0.6124
vt 0.4802 0.0985
vt 0.0144 0.0985
vt 0.0144 0.0119
vt 0.4802 0.0119
vt 0.6155 0.8305
vt 0.6155 0.8631
vt 0.8820 0.8631
vt 0.8820 0.8305
vt 0.5274 0.8563
vt 0.2003 0.8563
vt 0.2003 0.8891
vt 0.5274 0.8891
vt 0.6155 0.7986
vt 0.8820 0.7986
vt 0.5274 0.9553
vt 0.2003 0.9553
vt 0.2003 0.9881
vt 0.5274 0.9881
vt 0.5421 0.7664
vt 0.5421 0.7986
vt 0.6155 0.7664
vt 0.9356 0.8631
vt 0.9356 0.8305
vt 0.5421 0.6997
vt 0.5421 0.7331
vt 0.6155 0.7331
vt 0.6155 0.6997
vt 0.5421 0.8305
vt 0.5421 0.8631
vt 0.9356 0.6997
vt 0.9356 0.7331
vt 0.9852 0.7148
vt 0.9661 0.6901
vt 0.9661 0.7477
vt 0.9356 0.7664
vt 0.8820 0.7331
vt 0.8820 0.7664
vt 0.9356 0.7986
vt 0.8820 0.6997
vt 0.5274 0.9226
vt 0.2003 0.9226
vt 0.1684 0.8563
vt 0.1684 0.8891
vt 0.5516 0.4867
vt 0.5247 0.4867
vt 0.5247 0.6850
vt 0.5516 0.6850
vt 0.5058 0.0985
vt 0.5058 0.0119
vt 0.5397 0.9919
vt 0.9703 0.9919
vt 0.5397 0.8739
vt 0.9703 0.8739
vt 0.9703 0.9134
vt 0.5397 0.9134
vt 0.5397 0.9919
vt 0.5397 0.9527
vt 0.9703 0.9527
vt 0.9703 0.9919
vt 0.5523 0.9919
vt 0.9576 0.9919
vt 0.9623 0.0985
vt 0.9623 0.0119
vt 0.9889 0.0985
vt 0.9889 0.0119
vt 0.0724 0.6624
vt 0.1022 0.6624
vt 0.1022 0.9816
vt 0.0724 0.9816
vt 0.1319 0.6624
vt 0.1319 0.9816
vt 0.1022 0.6624
vt 0.1022 0.9816
vt 0.1022 0.6624
vt 0.1319 0.6624
vt 0.1319 0.9816
vt 0.1022 0.9816
vt 0.0427 0.6624
vt 0.0427 0.9816
vt 0.0427 0.6624
vt 0.0427 0.9816
vt 0.1022 0.6624
vt 0.1022 0.9816
vt 0.1319 0.6624
vt 0.1319 0.9816
vt 0.1319 0.6624
vt 0.1319 0.9816
vt 0.1319 0.6624
vt 0.1319 0.9816
vt 0.6054 0.4867
vt 0.6054 0.6850
vt 0.5785 0.6850
vt 0.5785 0.4867
vt 0.6054 0.4867
vt 0.5785 0.4867
vt 0.5785 0.6850
vt 0.6054 0.6850
vt 0.5648 0.4730
vt 0.5648 0.4208
vt 0.5092 0.4208
vt 0.5092 0.4730
vt 0.0582 0.5258
vt 0.5092 0.5258
vt 0.0582 0.4730
vt 0.0089 0.4208
vt 0.0089 0.4730
vt 0.0582 0.4208
vt 0.0582 0.5783
vt 0.5092 0.5783
vt 0.0582 0.6307
vt 0.5092 0.6307
vn 0.0000 -0.1342 -0.9909
vn 1.0000 0.0000 0.0000
vn 0.0000 0.1342 0.9909
vn 0.0000 -0.9909 0.1342
vn 0.0000 0.9909 -0.1342
vn 0.9284 0.1959 0.3157
vn -0.5757 -0.2661 -0.7732
vn 0.5900 -0.1262 -0.7975
vn -0.9508 -0.0422 0.3070
vn 0.0000 0.2425 0.9701
vn 0.5524 0.2929 -0.7804
vn -0.9340 -0.2016 0.2949
vn 0.0000 -0.2747 0.9615
vn 0.9502 0.0302 0.3100
vn -0.5752 0.1580 -0.8026
vn -0.2307 0.9643 -0.1301
vn 0.0000 0.1331 0.9911
vn 0.0000 -0.9908 0.1352
vn 0.9511 0.0411 0.3063
vn -1.0000 0.0000 0.0000
vn 0.5867 -0.1668 -0.7924
vn 0.0000 0.2552 0.9669
vn -0.9494 -0.0182 0.3137
vn 0.0000 0.0736 0.9973
vn 0.9494 -0.0182 0.3137
vn -0.5867 -0.1668 -0.7924
vn 0.0000 0.9911 -0.1331
vn -0.5832 0.0163 -0.8121
vn 0.5832 0.0163 -0.8121
vn -0.9437 0.1639 0.2874
vn -0.0000 0.9908 -0.1352
vn 0.0000 0.1359 0.9907
vn -0.9971 0.0127 -0.0754
vn -0.5878 -0.1077 -0.8018
vn 0.5878 -0.1077 -0.8018
vn -0.9511 0.0411 0.3063
vn -0.0000 0.1337 0.9910
vn 0.2307 -0.9643 0.1301
vn -0.0000 -0.1337 -0.9910
vn 0.9437 0.1639 0.2874
vn 0.0000 1.0000 0.0000
vn 0.0000 0.0000 1.0000
vn 0.0000 -0.9400 -0.3412
vn 0.0000 0.2022 0.9793
vn 0.0000 0.7833 -0.6217
vn -0.9284 0.1959 0.3157
vn 0.5757 -0.2661 -0.7732
vn -0.5900 -0.1262 -0.7975
vn 0.9508 -0.0422 0.3070
vn -0.5524 0.2929 -0.7804
vn 0.9340 -0.2016 0.2949
vn -0.9502 0.0302 0.3100
vn 0.5752 0.1580 -0.8026
vn 0.2307 0.9643 -0.1301
vn 0.9971 0.0127 -0.0754
vn 0.0000 0.0000 -1.0000
vn 0.0000 -0.9910 0.1337
vn -0.2307 -0.9643 0.1301
vn 0.0000 0.9910 -0.1337
vn 0.0000 0.0727 0.9974
vn 0.0000 -0.8875 -0.4609
vn 0.0000 0.8577 -0.5142
vn 0.5878 0.1340 -0.7978
vn 0.3808 -0.1531 0.9119
vn -0.5878 0.1340 -0.7978
vn -0.3808 -0.1531 0.9119
usemtl misc_chair01
s off
f 7/1/1 3/2/1 2/3/1 6/4/1
f 8/5/2 4/6/2 3/2/2 7/7/2
f 5/8/3 1/9/3 4/6/3 8/10/3
f 2/3/4 3/2/4 4/6/4 1/9/4
f 7/7/5 6/11/5 5/12/5 8/5/5
f 12/13/6 25/14/6 24/15/6 13/16/6
f 26/17/7 10/18/7 9/19/7 27/20/7
f 13/16/8 24/15/8 27/20/8 9/19/8
f 28/21/9 11/22/9 10/23/9 26/24/9
f 25/14/10 12/13/10 11/22/10 28/21/10
f 14/25/11 19/26/11 23/27/11 18/28/11
f 20/29/12 15/30/12 16/31/12 21/32/12
f 17/33/13 22/34/13 21/35/13 16/36/13
f 18/28/14 23/27/14 22/34/14 17/33/14
f 19/26/15 14/25/15 15/30/15 20/29/15
f 32/37/16 34/38/16 33/39/16 31/40/16
f 47/41/17 84/42/17 85/43/17 46/44/17
f 38/45/18 37/46/18 56/47/18 58/48/18
f 48/49/19 86/50/19 84/42/19 47/41/19
f 54/51/20 38/52/20 58/53/20 59/54/20
f 39/55/21 44/56/21 48/49/21 43/57/21
f 84/42/22 52/58/22 51/59/22 85/43/22
f 41/60/23 46/61/23 45/62/23 40/63/23
f 42/64/24 47/41/24 46/44/24 41/65/24
f 43/57/25 48/49/25 47/41/25 42/64/25
f 44/56/26 39/55/26 40/63/26 45/62/26
f 51/66/27 52/67/27 53/68/27 50/69/27
f 49/70/27 50/69/27 53/68/27
f 49/71/28 88/72/28 87/73/28 50/69/28
f 88/72/29 49/71/29 53/74/29 86/50/29
f 50/69/30 87/73/30 85/75/30 51/66/30
f 55/76/31 54/51/31 59/54/31 57/77/31
f 37/46/2 55/76/2 57/77/2 56/47/2
f 58/48/32 56/47/32 57/78/32 59/79/32
f 61/80/33 64/81/33 63/82/33 60/83/33
f 45/62/34 87/73/34 88/72/34 44/56/34
f 44/56/35 88/72/35 86/50/35 48/49/35
f 46/61/36 85/75/36 87/73/36 45/62/36
f 30/84/37 36/85/37 34/38/37 32/37/37
f 29/86/38 35/87/38 36/85/38 30/84/38
f 35/87/39 29/86/39 31/88/39 33/89/39
f 89/90/20 90/91/20 98/92/20 97/93/20
f 86/50/40 53/74/40 52/58/40 84/42/40
f 94/94/41 180/95/41 179/96/41 95/97/41
f 96/98/42 95/97/42 179/96/42 178/99/42
f 6/11/20 2/100/20 1/101/20 5/12/20
f 92/102/2 100/103/2 99/104/2 91/105/2
f 91/105/41 99/104/41 98/92/41 90/91/41
f 102/106/41 188/107/41 187/108/41 103/109/41
f 104/110/42 103/109/42 187/108/42 186/111/42
f 69/112/43 71/113/43 192/114/43 190/115/43
f 78/116/43 80/117/43 198/118/43 197/119/43
f 83/120/44 82/121/44 199/122/44 200/123/44
f 75/124/43 77/125/43 196/126/43 195/127/43
f 70/128/45 69/129/45 190/130/45 191/131/45
f 72/132/43 74/133/43 194/134/43 193/135/43
f 71/113/44 70/128/44 191/131/44 192/114/44
f 108/136/46 109/137/46 120/138/46 121/139/46
f 122/140/47 123/141/47 105/142/47 106/143/47
f 109/137/48 105/142/48 123/141/48 120/138/48
f 124/144/49 122/145/49 106/146/49 107/147/49
f 121/139/10 124/144/10 107/147/10 108/136/10
f 110/148/50 114/149/50 119/150/50 115/151/50
f 116/152/51 117/153/51 112/154/51 111/155/51
f 113/156/13 112/157/13 117/158/13 118/159/13
f 114/149/52 113/156/52 118/159/52 119/150/52
f 115/151/53 116/152/53 111/155/53 110/148/53
f 127/160/54 126/161/54 128/162/54 129/163/54
f 142/164/17 141/165/17 169/166/17 168/167/17
f 133/168/18 153/169/18 151/170/18 132/171/18
f 143/172/36 142/164/36 168/167/36 170/173/36
f 149/174/2 154/175/2 153/176/2 133/177/2
f 134/178/26 138/179/26 143/172/26 139/180/26
f 168/167/22 169/166/22 146/181/22 147/182/22
f 136/183/25 135/184/25 140/185/25 141/186/25
f 137/187/24 136/188/24 141/165/24 142/164/24
f 138/179/23 137/187/23 142/164/23 143/172/23
f 139/180/21 140/185/21 135/184/21 134/178/21
f 146/189/27 145/190/27 148/191/27 147/192/27
f 144/193/27 148/191/27 145/190/27
f 144/194/29 145/190/29 171/195/29 172/196/29
f 172/196/28 170/173/28 148/197/28 144/194/28
f 145/190/40 146/189/40 169/198/40 171/195/40
f 150/199/31 152/200/31 154/175/31 149/174/31
f 132/171/20 151/170/20 152/200/20 150/199/20
f 153/169/32 154/201/32 152/202/32 151/170/32
f 156/203/55 155/204/55 158/205/55 159/206/55
f 140/185/35 139/180/35 172/196/35 171/195/35
f 139/180/34 143/172/34 170/173/34 172/196/34
f 141/186/19 140/185/19 171/195/19 169/198/19
f 125/207/37 127/160/37 129/163/37 131/208/37
f 101/209/56 185/210/56 188/107/56 102/106/56
f 173/211/2 181/212/2 182/213/2 174/214/2
f 170/173/30 168/167/30 147/182/30 148/197/30
f 176/215/20 175/216/20 183/217/20 184/218/20
f 175/216/41 174/214/41 182/213/41 183/217/41
f 93/219/56 177/220/56 180/95/56 94/94/56
f 29/86/57 30/84/57 125/207/57 189/221/57
f 189/221/58 125/207/58 131/208/58 130/222/58
f 31/88/39 29/86/39 189/221/39 126/223/39
f 32/37/59 31/40/59 126/161/59 127/160/59
f 130/222/39 128/224/39 126/223/39 189/221/39
f 30/84/37 32/37/37 127/160/37 125/207/37
f 68/225/60 67/226/60 162/227/60 163/228/60
f 82/121/45 81/229/45 167/230/45 199/122/45
f 74/133/44 73/231/44 164/232/44 194/134/44
f 79/233/45 78/234/45 197/235/45 166/236/45
f 66/237/61 68/225/61 163/228/61 161/238/61
f 81/239/43 83/120/43 200/123/43 167/240/43
f 77/125/44 76/241/44 165/242/44 196/126/44
f 80/117/44 79/233/44 166/236/44 198/118/44
f 73/231/45 72/243/45 193/244/45 164/232/45
f 67/226/62 66/245/62 161/246/62 162/227/62
f 76/241/45 75/247/45 195/248/45 165/242/45
f 60/249/63 63/250/63 65/251/63 62/252/63
f 62/252/64 65/251/64 64/81/64 61/80/64
f 155/253/65 157/254/65 160/255/65 158/256/65
f 157/254/66 156/203/66 159/206/66 160/255/66
f 207/257/1 206/258/1 202/259/1 203/260/1
f 208/261/20 207/262/20 203/260/20 204/263/20
f 205/264/3 208/265/3 204/263/3 201/266/3
f 202/259/4 201/266/4 204/263/4 203/260/4
f 207/262/5 208/261/5 205/267/5 206/268/5
f 206/268/2 205/267/2 201/269/2 202/270/2
